FILE "Uki Uki Tsuri Tengoku - Kawa Monogatari (Japan).bin" BINARY
  TRACK 01 MODE2/2352
    INDEX 01 00:00:00
  TRACK 02 AUDIO
    INDEX 00 34:24:55
    INDEX 01 34:26:55
  TRACK 03 AUDIO
    INDEX 00 35:29:56
    INDEX 01 35:31:56
  TRACK 04 AUDIO
    INDEX 00 36:45:18
    INDEX 01 36:47:18
  TRACK 05 AUDIO
    INDEX 00 37:34:49
    INDEX 01 37:36:49
  TRACK 06 AUDIO
    INDEX 00 38:40:51
    INDEX 01 38:42:51
  TRACK 07 AUDIO
    INDEX 00 39:37:53
    INDEX 01 39:39:53
REM LEADOUT 43:09:54
